<?xml version="1.0" encoding="UTF-8" standalone="no"?> <!-- Created with Vectornator for iOS (http://vectornator.io/) --><!DOCTYPE svg PUBLIC "-//W3C//DTD SVG 1.1//EN" "http://www.w3.org/Graphics/SVG/1.1/DTD/svg11.dtd">
<svg style="fill-rule:evenodd;clip-rule:evenodd;stroke-linecap:round;stroke-linejoin:round;" xmlns:vectornator="http://vectornator.io" xmlns:xlink="http://www.w3.org/1999/xlink" xmlns="http://www.w3.org/2000/svg" xml:space="preserve" version="1.1" viewBox="0 0 39.37 60">
<metadata>
<vectornator:setting key="DynamicGuides" value="1"/>
<vectornator:setting key="CMYKEnabledKey" value="0"/>
<vectornator:setting key="Units" value="Points"/>
<vectornator:setting key="GridSpacing" value="36"/>
<vectornator:setting key="SnapToGuides" value="1"/>
<vectornator:setting key="RulersVisible" value="1"/>
</metadata>
<defs/>
<g id="c53f6f44-5fda-4b11-be97-bf689d200fb2" vectornator:layerName="c53f6f44-5fda-4b11-be97-bf689d200fb2">
<path d="M21.0627+46.566L16.7207+44.144L19.2387+46.9513L17.53+58.1913L12.1833+60L20.1073+60L19.2953+58.1913L21.0627+46.566Z" opacity="1" fill="#4bba5b"/>
<path d="M30.2933+18.9667L16.142+18.9667L8.41466+0.129333L6.93266+1.08333L5.262+1.78814e-07L4.51733+1.71933L2.68133+1.71933L2.68133+4.43667L-8.64704e-07+6.32667L2.71333+6.32667L2.71333+9.864C2.71333+9.864+2.57533+11.5427+4.24267+11.5427C5.44733+11.5427+5.79333+10.7187+5.79333+10.7187L5.79333+32.1787L15.6767+43L23.082+43L27.0987+47.3993L25.458+58.1913L20.112+60L28.036+60L27.224+58.1913L29.5313+43L39.3627+32.1787L39.3627+11.5193L30.2933+18.9667Z" opacity="1" fill="#4bba5b"/>
</g>
</svg>
